<svg height="512pt" viewBox="0 -46 512 512" width="512pt" xmlns="http://www.w3.org/2000/svg"><path d="M482 182.578V45c0-24.813-20.188-45-45-45H75C50.187 0 30 20.188 30 45v137.578C12.54 188.773 0 205.445 0 225v180c0 8.285 6.715 15 15 15h60c8.285 0 15-6.715 15-15v-45h332v45c0 8.285 6.715 15 15 15h60c8.285 0 15-6.715 15-15V225c0-19.555-12.54-36.227-30-42.422zM75 30h362c8.27 0 15 6.73 15 15v135h-32.578A44.814 44.814 0 0 0 422 165v-30c0-24.813-20.188-45-45-45h-61c-24.813 0-45 20.188-45 45v30c0 5.258.914 10.305 2.578 15h-35.156A44.814 44.814 0 0 0 241 165v-30c0-24.813-20.188-45-45-45h-61c-24.813 0-45 20.188-45 45v30c0 5.258.914 10.305 2.578 15H60V45c0-8.27 6.73-15 15-15zm226 135v-30c0-8.27 6.73-15 15-15h61c8.27 0 15 6.73 15 15v30c0 8.27-6.73 15-15 15h-61c-8.27 0-15-6.73-15-15zm-181 0v-30c0-8.27 6.73-15 15-15h61c8.27 0 15 6.73 15 15v30c0 8.27-6.73 15-15 15h-61c-8.27 0-15-6.73-15-15zm-75 45h422c8.27 0 15 6.73 15 15v45H30v-45c0-8.27 6.73-15 15-15zm407 180v-45c0-8.285-6.715-15-15-15H75c-8.285 0-15 6.715-15 15v45H30v-90h452v90zm0 0"/></svg>