<svg xmlns="http://www.w3.org/2000/svg" viewBox="0 0 512 512"><path d="M128 8.533A8.53 8.53 0 0 0 119.467 0H102.4c-4.71 0-8.533 3.814-8.533 8.533s3.823 8.533 8.533 8.533h17.067A8.53 8.53 0 0 0 128 8.533zm-51.2 0A8.53 8.53 0 0 0 68.267 0H51.2c-4.898 0-9.754.691-14.421 2.057-4.523 1.323-7.117 6.067-5.794 10.59 1.084 3.729 4.489 6.135 8.183 6.135.794 0 1.604-.111 2.406-.341a34.135 34.135 0 0 1 9.626-1.374h17.067A8.531 8.531 0 0 0 76.8 8.533zm6.101 486.4H65.835a8.53 8.53 0 0 0-8.533 8.533 8.53 8.53 0 0 0 8.533 8.533h17.067a8.53 8.53 0 0 0 8.533-8.533 8.531 8.531 0 0 0-8.534-8.533zm51.2 0h-17.067a8.53 8.53 0 0 0-8.533 8.533 8.53 8.53 0 0 0 8.533 8.533h17.067a8.53 8.53 0 0 0 8.533-8.533 8.53 8.53 0 0 0-8.533-8.533zM230.4 8.533A8.53 8.53 0 0 0 221.867 0H204.8c-4.71 0-8.533 3.814-8.533 8.533s3.823 8.533 8.533 8.533h17.067a8.53 8.53 0 0 0 8.533-8.533zm6.101 486.4h-17.067a8.53 8.53 0 0 0-8.533 8.533 8.53 8.53 0 0 0 8.533 8.533h17.067a8.53 8.53 0 0 0 8.533-8.533 8.53 8.53 0 0 0-8.533-8.533zm-200.354-3.498a34.116 34.116 0 0 1-10.743-8.294c-3.089-3.567-8.482-3.959-12.041-.853-3.558 3.089-3.942 8.474-.853 12.032 4.523 5.205 9.941 9.395 16.094 12.425a8.544 8.544 0 0 0 11.426-3.874c2.082-4.234.35-9.354-3.883-11.436zm149.154 3.498h-17.067a8.53 8.53 0 0 0-8.533 8.533 8.53 8.53 0 0 0 8.533 8.533h17.067a8.53 8.53 0 0 0 8.533-8.533 8.53 8.53 0 0 0-8.533-8.533zM179.2 8.533A8.53 8.53 0 0 0 170.667 0H153.6c-4.71 0-8.533 3.814-8.533 8.533s3.823 8.533 8.533 8.533h17.067a8.53 8.53 0 0 0 8.533-8.533zM8.533 209.673a8.53 8.53 0 0 0 8.533-8.533v-17.067c0-4.719-3.823-8.533-8.533-8.533S0 179.354 0 184.073v17.067a8.531 8.531 0 0 0 8.533 8.533zM281.6 8.533A8.53 8.53 0 0 0 273.067 0H256c-4.71 0-8.533 3.814-8.533 8.533s3.823 8.533 8.533 8.533h17.067a8.53 8.53 0 0 0 8.533-8.533zM8.533 158.473a8.53 8.53 0 0 0 8.533-8.533v-17.067c0-4.719-3.823-8.533-8.533-8.533S0 128.154 0 132.873v17.067a8.531 8.531 0 0 0 8.533 8.533zm0-51.2a8.53 8.53 0 0 0 8.533-8.533V81.673c0-4.719-3.823-8.533-8.533-8.533S0 76.954 0 81.673V98.74a8.531 8.531 0 0 0 8.533 8.533zM7.97 56.038c.239.026.486.034.725.034a8.532 8.532 0 0 0 8.491-7.817A33.895 33.895 0 0 1 21 35.259a8.524 8.524 0 0 0-3.558-11.529c-4.164-2.219-9.327-.614-11.529 3.558A50.598 50.598 0 0 0 .187 46.821a8.52 8.52 0 0 0 7.783 9.217zm.563 204.835a8.53 8.53 0 0 0 8.533-8.533v-17.067c0-4.719-3.823-8.533-8.533-8.533S0 230.554 0 235.273v17.067a8.531 8.531 0 0 0 8.533 8.533zm8.534 196.266v-17.067c0-4.719-3.823-8.533-8.533-8.533S0 435.354 0 440.073v17.067c0 4.719 3.823 8.533 8.533 8.533s8.534-3.815 8.534-8.534zm-8.534-42.666a8.53 8.53 0 0 0 8.533-8.533v-17.067c0-4.719-3.823-8.533-8.533-8.533S0 384.154 0 388.873v17.067a8.531 8.531 0 0 0 8.533 8.533zm0-51.2a8.53 8.53 0 0 0 8.533-8.533v-17.067c0-4.719-3.823-8.533-8.533-8.533S0 332.954 0 337.673v17.067a8.531 8.531 0 0 0 8.533 8.533zm0-51.2a8.53 8.53 0 0 0 8.533-8.533v-17.067c0-4.719-3.823-8.533-8.533-8.533S0 281.754 0 286.473v17.067a8.531 8.531 0 0 0 8.533 8.533zm494.934-29.253a8.53 8.53 0 0 0-8.533 8.533v17.067c0 4.719 3.823 8.533 8.533 8.533S512 313.131 512 308.42v-17.067a8.531 8.531 0 0 0-8.533-8.533zm0 51.2a8.53 8.53 0 0 0-8.533 8.533v17.067c0 4.719 3.823 8.533 8.533 8.533S512 364.331 512 359.62v-17.067a8.531 8.531 0 0 0-8.533-8.533zM287.701 494.933h-17.067a8.53 8.53 0 0 0-8.533 8.533 8.53 8.53 0 0 0 8.533 8.533h17.067a8.53 8.53 0 0 0 8.533-8.533 8.53 8.53 0 0 0-8.533-8.533zM503.467 385.22a8.53 8.53 0 0 0-8.533 8.533v17.067c0 4.719 3.823 8.533 8.533 8.533S512 415.531 512 410.82v-17.067a8.531 8.531 0 0 0-8.533-8.533zm5.06-352.606c-1.715-4.386-6.673-6.571-11.051-4.847a8.526 8.526 0 0 0-4.855 11.051 33.959 33.959 0 0 1 2.313 12.382v1.22c0 4.719 3.823 8.533 8.533 8.533S512 57.131 512 52.42V51.2c0-6.4-1.169-12.646-3.473-18.586zm-5.06 45.406a8.53 8.53 0 0 0-8.533 8.533v17.067c0 4.719 3.823 8.533 8.533 8.533S512 108.331 512 103.62V86.554a8.531 8.531 0 0 0-8.533-8.534zm0 102.4a8.53 8.53 0 0 0-8.533 8.533v17.067c0 4.719 3.823 8.533 8.533 8.533S512 210.731 512 206.02v-17.067a8.531 8.531 0 0 0-8.533-8.533zm0 256a8.53 8.53 0 0 0-8.533 8.533l-.017 16.845c-.12 4.71 3.601 8.627 8.311 8.755h.23a8.535 8.535 0 0 0 8.525-8.311l.017-17.288a8.531 8.531 0 0 0-8.533-8.534zm0-307.2a8.53 8.53 0 0 0-8.533 8.533v17.067c0 4.719 3.823 8.533 8.533 8.533S512 159.531 512 154.82v-17.067a8.531 8.531 0 0 0-8.533-8.533zm0 102.4a8.53 8.53 0 0 0-8.533 8.533v17.067c0 4.719 3.823 8.533 8.533 8.533S512 261.931 512 257.22v-17.067a8.531 8.531 0 0 0-8.533-8.533zM338.901 494.933h-17.067a8.53 8.53 0 0 0-8.533 8.533 8.53 8.53 0 0 0 8.533 8.533h17.067a8.53 8.53 0 0 0 8.533-8.533 8.53 8.53 0 0 0-8.533-8.533zm51.2 0h-17.067a8.53 8.53 0 0 0-8.533 8.533 8.53 8.53 0 0 0 8.533 8.533h17.067a8.53 8.53 0 0 0 8.533-8.533 8.53 8.53 0 0 0-8.533-8.533zM384 8.533A8.53 8.53 0 0 0 375.467 0H358.4c-4.71 0-8.533 3.814-8.533 8.533s3.823 8.533 8.533 8.533h17.067A8.53 8.53 0 0 0 384 8.533zm-51.2 0A8.53 8.53 0 0 0 324.267 0H307.2c-4.71 0-8.533 3.814-8.533 8.533s3.823 8.533 8.533 8.533h17.067a8.53 8.53 0 0 0 8.533-8.533zm108.501 486.4h-17.067a8.53 8.53 0 0 0-8.533 8.533 8.53 8.53 0 0 0 8.533 8.533h17.067a8.53 8.53 0 0 0 8.533-8.533 8.53 8.53 0 0 0-8.533-8.533zm36.105-474.504c3.319 0 6.485-1.954 7.859-5.197 1.843-4.343-.188-9.353-4.523-11.196C474.428 1.357 467.721 0 460.8 0c-4.71 0-8.533 3.814-8.533 8.533s3.823 8.533 8.533 8.533c4.617 0 9.088.896 13.278 2.688a8.499 8.499 0 0 0 3.328.675zM435.2 8.533A8.53 8.53 0 0 0 426.667 0H409.6c-4.71 0-8.533 3.814-8.533 8.533s3.823 8.533 8.533 8.533h17.067a8.53 8.53 0 0 0 8.533-8.533zm48.683 477.415a34.154 34.154 0 0 1-11.614 7.023c-4.437 1.579-6.741 6.468-5.154 10.906a8.527 8.527 0 0 0 8.03 5.658 8.67 8.67 0 0 0 2.876-.495c6.46-2.304 12.314-5.845 17.399-10.505 3.473-3.191 3.712-8.585.521-12.058-3.184-3.473-8.585-3.704-12.058-.529zM227.9 284.1a8.523 8.523 0 0 0-12.066 0l-153.6 153.6a8.525 8.525 0 0 0 0 12.066c1.664 1.664 3.849 2.5 6.033 2.5s4.369-.836 6.033-2.5l153.6-153.6a8.525 8.525 0 0 0 0-12.066z"/><path d="M170.667 435.2H76.8v-93.867c0-4.719-3.823-8.533-8.533-8.533s-8.533 3.814-8.533 8.533v102.4a8.53 8.53 0 0 0 8.533 8.533h102.4a8.53 8.53 0 0 0 8.533-8.533 8.53 8.53 0 0 0-8.533-8.533zM449.766 62.234a8.523 8.523 0 0 0-12.066 0l-153.6 153.6a8.523 8.523 0 0 0 0 12.066 8.51 8.51 0 0 0 6.033 2.5 8.509 8.509 0 0 0 6.033-2.5l153.6-153.6a8.523 8.523 0 0 0 0-12.066z"/><path d="M443.733 59.733h-102.4c-4.71 0-8.533 3.814-8.533 8.533s3.823 8.533 8.533 8.533H435.2v93.867c0 4.719 3.823 8.533 8.533 8.533s8.533-3.814 8.533-8.533v-102.4a8.53 8.53 0 0 0-8.533-8.533z"/></svg>