<svg height="512pt" viewBox="-76 0 512 512" width="512pt" xmlns="http://www.w3.org/2000/svg"><path d="M0 180c0 35.23 10.176 69.34 29.43 98.664l137.761 226.14a15.003 15.003 0 0 0 25.621 0l137.758-226.14C349.824 249.34 360 215.23 360 180 360 80.746 279.254 0 180 0S0 80.746 0 180zM180 30c82.71 0 150 67.29 150 150 0 29.438-8.52 57.93-24.633 82.39-.097.15-.191.298-.281.45L180 468.168S54.73 262.539 54.633 262.391C38.52 237.93 30 209.437 30 180 30 97.29 97.29 30 180 30zm0 0"/><path d="M180 300c66.168 0 120-53.832 120-120S246.168 60 180 60 60 113.832 60 180s53.832 120 120 120zM91.258 195h29.183c1.325 22.89 5.649 44.29 12.547 61.715-21.707-13.352-37.34-35.649-41.73-61.715zM180 90c9.594 0 26.465 28.113 29.52 75h-59.04c3.055-46.887 19.926-75 29.52-75zm29.52 105c-3.055 46.887-19.926 75-29.52 75s-26.465-28.113-29.52-75zm17.492 61.715c6.898-17.426 11.226-38.832 12.547-61.727h29.183c-4.39 26.07-20.023 48.375-41.73 61.727zM268.742 165H239.56c-1.325-22.89-5.649-44.29-12.547-61.715 21.707 13.352 37.34 35.649 41.73 61.715zm-135.754-61.715c-6.898 17.426-11.226 38.824-12.547 61.715H91.258c4.39-26.066 20.023-48.363 41.73-61.715zm0 0"/></svg>