<svg height="511pt" viewBox="0 0 512 511" width="511pt" xmlns="http://www.w3.org/2000/svg"><path d="M82.402 280.121c-16.914-7.566-37.09-3.848-50.195 9.258L4.391 317.195c-6.903 6.903-5.465 18.453 2.89 23.47l88.153 52.89-33.786 33.78c-5.859 5.86-5.859 15.356 0 21.216 5.856 5.855 15.356 5.855 21.211 0l34.36-34.36 54.613 91.024c5.043 8.41 16.602 9.754 23.469 2.89l27.816-27.816c13.106-13.105 16.824-33.281 9.254-50.2l-22.742-50.827 73.937-67.414 142.903 171.64c5.636 6.77 15.886 7.254 22.133 1.008 29.593-29.594 36.941-75.351 16.91-113.05l-18.438-34.704 15.95-15.945c17.581-17.586 17.585-46.047 0-63.633-16.57-16.57-42.485-17.363-59.973-3.277l-18.246-34.34 103.191-94.082c30.75-27.36 32.168-74.856 3.027-103.996C461.93-7.625 414.422-6.285 387.027 24.5L292.95 127.691l-37.258-19.796c14.836-17.633 14.032-44.032-2.66-60.72-17.582-17.585-46.043-17.585-63.629 0l-16.652 16.65-31.703-16.845C104.086 27.344 58.18 33.71 28 63.895c-6.238 6.234-5.77 16.488 1.008 22.132l171.64 142.899-67.414 73.941zm338.2-1.746c5.859-5.86 15.347-5.863 21.207 0 5.859 5.86 5.863 15.348 0 21.207l-9.454 9.457-14.718-27.7zm18.421 107.148c11.04 20.778 10.172 45.063-1.355 64.536l-131.91-158.442 56.164-51.207c21.777 40.988 59.402 111.805 77.101 145.113zM210.613 68.387c5.86-5.86 15.344-5.864 21.207 0 5.86 5.86 5.864 15.343 0 21.207l-3.668 3.668-27.699-14.719zM62.437 74.824c19.473-11.527 43.758-12.394 64.536-1.351 14.75 7.84 129.46 68.785 145.109 77.101l-51.203 56.16zm85.657 256.27S409.355 44.539 409.398 44.488c15.946-17.976 43.563-18.66 60.414-1.808 16.856 16.855 16.165 44.476-1.804 60.414l-286.61 261.304a15.003 15.003 0 0 0-3.582 17.211l27.172 60.735c2.524 5.636 1.285 12.363-3.086 16.73l-14.23 14.235-48.59-80.985 6.145-6.144c5.855-5.856 5.855-15.352 0-21.211-5.856-5.856-15.356-5.856-21.211 0l-6.72 6.719-78.109-46.868 14.231-14.23c4.371-4.371 11.094-5.61 16.734-3.086l60.73 27.176a15.003 15.003 0 0 0 17.212-3.586zm0 0"/></svg>