<svg xmlns="http://www.w3.org/2000/svg" xmlns:xlink="http://www.w3.org/1999/xlink" width="0" height="0" style="position:absolute">
	
		<symbol id="icon-bed" viewBox="0 -46 512 512">
			<path d="M482 182.578V45c0-24.813-20.188-45-45-45H75C50.187 0 30 20.188 30 45v137.578C12.54 188.773 0 205.445 0 225v180c0 8.285 6.715 15 15 15h60c8.285 0 15-6.715 15-15v-45h332v45c0 8.285 6.715 15 15 15h60c8.285 0 15-6.715 15-15V225c0-19.555-12.54-36.227-30-42.422zM75 30h362c8.27 0 15 6.73 15 15v135h-32.578A44.814 44.814 0 0 0 422 165v-30c0-24.813-20.188-45-45-45h-61c-24.813 0-45 20.188-45 45v30c0 5.258.914 10.305 2.578 15h-35.156A44.814 44.814 0 0 0 241 165v-30c0-24.813-20.188-45-45-45h-61c-24.813 0-45 20.188-45 45v30c0 5.258.914 10.305 2.578 15H60V45c0-8.27 6.73-15 15-15zm226 135v-30c0-8.27 6.73-15 15-15h61c8.27 0 15 6.73 15 15v30c0 8.27-6.73 15-15 15h-61c-8.27 0-15-6.73-15-15zm-181 0v-30c0-8.27 6.73-15 15-15h61c8.27 0 15 6.73 15 15v30c0 8.27-6.73 15-15 15h-61c-8.27 0-15-6.73-15-15zm-75 45h422c8.27 0 15 6.73 15 15v45H30v-45c0-8.27 6.73-15 15-15zm407 180v-45c0-8.285-6.715-15-15-15H75c-8.285 0-15 6.715-15 15v45H30v-90h452v90zm0 0"></path>
		</symbol>
	
		<symbol id="icon-calendar" viewBox="0 0 485.213 485.212">
			<path d="M60.652 75.816V15.163C60.652 6.781 67.433 0 75.817 0c8.38 0 15.161 6.781 15.161 15.163v60.653c0 8.38-6.781 15.161-15.161 15.161-8.384.001-15.165-6.781-15.165-15.161zm257.772 15.162c8.378 0 15.163-6.781 15.163-15.161V15.163C333.587 6.781 326.802 0 318.424 0c-8.382 0-15.168 6.781-15.168 15.163v60.653c0 8.38 6.786 15.162 15.168 15.162zm166.788 272.928c0 66.996-54.312 121.307-121.303 121.307-66.986 0-121.302-54.311-121.302-121.307 0-66.986 54.315-121.3 121.302-121.3 66.991 0 121.303 54.313 121.303 121.3zm-30.322 0c0-50.161-40.81-90.976-90.98-90.976-50.166 0-90.976 40.814-90.976 90.976 0 50.171 40.81 90.98 90.976 90.98 50.17 0 90.98-40.809 90.98-90.98zM121.305 181.955H60.652v60.651h60.653v-60.651zM60.652 333.584h60.653V272.93H60.652v60.654zm90.977-90.978h60.654v-60.651h-60.654v60.651zm0 90.978h60.654V272.93h-60.654v60.654zM30.328 360.891V151.628H363.91v60.653h30.327V94c0-18.421-14.692-33.349-32.843-33.349h-12.647v15.166c0 16.701-13.596 30.325-30.322 30.325-16.731 0-30.326-13.624-30.326-30.325V60.651H106.14v15.166c0 16.701-13.593 30.325-30.322 30.325-16.733 0-30.327-13.624-30.327-30.325V60.651H32.859C14.707 60.651.001 75.579.001 94v266.892c0 18.36 14.706 33.346 32.858 33.346h179.424v-30.331H32.859c-1.374-.001-2.531-1.42-2.531-3.016zm272.928-118.285v-60.651h-60.648v60.651h60.648zm106.143 121.3h-45.49v-45.49c0-8.377-6.781-15.158-15.163-15.158s-15.159 6.781-15.159 15.158v60.658c0 8.378 6.777 15.163 15.159 15.163h60.653c8.382 0 15.163-6.785 15.163-15.163 0-8.382-6.781-15.168-15.163-15.168z"></path>
		</symbol>
	
		<symbol id="icon-cancel" viewBox="0 0 64 64">
			<path d="M28.941 31.786L.613 60.114a2.014 2.014 0 1 0 2.848 2.849l28.541-28.541 28.541 28.541c.394.394.909.59 1.424.59a2.014 2.014 0 0 0 1.424-3.439L35.064 31.786 63.41 3.438A2.014 2.014 0 1 0 60.562.589L32.003 29.15 3.441.59A2.015 2.015 0 0 0 .593 3.439l28.348 28.347z"></path>
		</symbol>
	
		<symbol id="icon-clock" viewBox="0 0 60 60">
			<path d="M30 0C13.458 0 0 13.458 0 30s13.458 30 30 30 30-13.458 30-30S46.542 0 30 0zm0 58C14.561 58 2 45.439 2 30S14.561 2 30 2s28 12.561 28 28-12.561 28-28 28z"></path><path d="M31 26.021V15.879a1 1 0 1 0-2 0v10.142a3.995 3.995 0 0 0-2.858 2.858H19a1 1 0 1 0 0 2h7.142c.447 1.72 2 3 3.858 3 2.206 0 4-1.794 4-4 0-1.859-1.28-3.411-3-3.858zm-1 5.858c-1.103 0-2-.897-2-2s.897-2 2-2 2 .897 2 2-.897 2-2 2zm0-22a1 1 0 0 0 1-1v-1a1 1 0 1 0-2 0v1a1 1 0 0 0 1 1zm0 40a1 1 0 0 0-1 1v1a1 1 0 1 0 2 0v-1a1 1 0 0 0-1-1zm22-21h-1a1 1 0 1 0 0 2h1a1 1 0 1 0 0-2zm-43 0H8a1 1 0 1 0 0 2h1a1 1 0 1 0 0-2zm35.849-15.264l-.707.707a.999.999 0 1 0 1.414 1.414l.707-.707a.999.999 0 1 0-1.414-1.414zM14.444 44.021l-.707.707a.999.999 0 1 0 1.414 1.414l.707-.707a.999.999 0 1 0-1.414-1.414zm31.112 0a.999.999 0 1 0-1.414 1.414l.707.707a.997.997 0 0 0 1.414 0 .999.999 0 0 0 0-1.414l-.707-.707zM15.151 13.615a.999.999 0 1 0-1.414 1.414l.707.707a.997.997 0 0 0 1.414 0 .999.999 0 0 0 0-1.414l-.707-.707z"></path>
		</symbol>
	
		<symbol id="icon-expand" viewBox="0 0 512 512">
			<path d="M128 8.533A8.53 8.53 0 0 0 119.467 0H102.4c-4.71 0-8.533 3.814-8.533 8.533s3.823 8.533 8.533 8.533h17.067A8.53 8.53 0 0 0 128 8.533zm-51.2 0A8.53 8.53 0 0 0 68.267 0H51.2c-4.898 0-9.754.691-14.421 2.057-4.523 1.323-7.117 6.067-5.794 10.59 1.084 3.729 4.489 6.135 8.183 6.135.794 0 1.604-.111 2.406-.341a34.135 34.135 0 0 1 9.626-1.374h17.067A8.531 8.531 0 0 0 76.8 8.533zm6.101 486.4H65.835a8.53 8.53 0 0 0-8.533 8.533 8.53 8.53 0 0 0 8.533 8.533h17.067a8.53 8.53 0 0 0 8.533-8.533 8.531 8.531 0 0 0-8.534-8.533zm51.2 0h-17.067a8.53 8.53 0 0 0-8.533 8.533 8.53 8.53 0 0 0 8.533 8.533h17.067a8.53 8.53 0 0 0 8.533-8.533 8.53 8.53 0 0 0-8.533-8.533zM230.4 8.533A8.53 8.53 0 0 0 221.867 0H204.8c-4.71 0-8.533 3.814-8.533 8.533s3.823 8.533 8.533 8.533h17.067a8.53 8.53 0 0 0 8.533-8.533zm6.101 486.4h-17.067a8.53 8.53 0 0 0-8.533 8.533 8.53 8.53 0 0 0 8.533 8.533h17.067a8.53 8.53 0 0 0 8.533-8.533 8.53 8.53 0 0 0-8.533-8.533zm-200.354-3.498a34.116 34.116 0 0 1-10.743-8.294c-3.089-3.567-8.482-3.959-12.041-.853-3.558 3.089-3.942 8.474-.853 12.032 4.523 5.205 9.941 9.395 16.094 12.425a8.544 8.544 0 0 0 11.426-3.874c2.082-4.234.35-9.354-3.883-11.436zm149.154 3.498h-17.067a8.53 8.53 0 0 0-8.533 8.533 8.53 8.53 0 0 0 8.533 8.533h17.067a8.53 8.53 0 0 0 8.533-8.533 8.53 8.53 0 0 0-8.533-8.533zM179.2 8.533A8.53 8.53 0 0 0 170.667 0H153.6c-4.71 0-8.533 3.814-8.533 8.533s3.823 8.533 8.533 8.533h17.067a8.53 8.53 0 0 0 8.533-8.533zM8.533 209.673a8.53 8.53 0 0 0 8.533-8.533v-17.067c0-4.719-3.823-8.533-8.533-8.533S0 179.354 0 184.073v17.067a8.531 8.531 0 0 0 8.533 8.533zM281.6 8.533A8.53 8.53 0 0 0 273.067 0H256c-4.71 0-8.533 3.814-8.533 8.533s3.823 8.533 8.533 8.533h17.067a8.53 8.53 0 0 0 8.533-8.533zM8.533 158.473a8.53 8.53 0 0 0 8.533-8.533v-17.067c0-4.719-3.823-8.533-8.533-8.533S0 128.154 0 132.873v17.067a8.531 8.531 0 0 0 8.533 8.533zm0-51.2a8.53 8.53 0 0 0 8.533-8.533V81.673c0-4.719-3.823-8.533-8.533-8.533S0 76.954 0 81.673V98.74a8.531 8.531 0 0 0 8.533 8.533zM7.97 56.038c.239.026.486.034.725.034a8.532 8.532 0 0 0 8.491-7.817A33.895 33.895 0 0 1 21 35.259a8.524 8.524 0 0 0-3.558-11.529c-4.164-2.219-9.327-.614-11.529 3.558A50.598 50.598 0 0 0 .187 46.821a8.52 8.52 0 0 0 7.783 9.217zm.563 204.835a8.53 8.53 0 0 0 8.533-8.533v-17.067c0-4.719-3.823-8.533-8.533-8.533S0 230.554 0 235.273v17.067a8.531 8.531 0 0 0 8.533 8.533zm8.534 196.266v-17.067c0-4.719-3.823-8.533-8.533-8.533S0 435.354 0 440.073v17.067c0 4.719 3.823 8.533 8.533 8.533s8.534-3.815 8.534-8.534zm-8.534-42.666a8.53 8.53 0 0 0 8.533-8.533v-17.067c0-4.719-3.823-8.533-8.533-8.533S0 384.154 0 388.873v17.067a8.531 8.531 0 0 0 8.533 8.533zm0-51.2a8.53 8.53 0 0 0 8.533-8.533v-17.067c0-4.719-3.823-8.533-8.533-8.533S0 332.954 0 337.673v17.067a8.531 8.531 0 0 0 8.533 8.533zm0-51.2a8.53 8.53 0 0 0 8.533-8.533v-17.067c0-4.719-3.823-8.533-8.533-8.533S0 281.754 0 286.473v17.067a8.531 8.531 0 0 0 8.533 8.533zm494.934-29.253a8.53 8.53 0 0 0-8.533 8.533v17.067c0 4.719 3.823 8.533 8.533 8.533S512 313.131 512 308.42v-17.067a8.531 8.531 0 0 0-8.533-8.533zm0 51.2a8.53 8.53 0 0 0-8.533 8.533v17.067c0 4.719 3.823 8.533 8.533 8.533S512 364.331 512 359.62v-17.067a8.531 8.531 0 0 0-8.533-8.533zM287.701 494.933h-17.067a8.53 8.53 0 0 0-8.533 8.533 8.53 8.53 0 0 0 8.533 8.533h17.067a8.53 8.53 0 0 0 8.533-8.533 8.53 8.53 0 0 0-8.533-8.533zM503.467 385.22a8.53 8.53 0 0 0-8.533 8.533v17.067c0 4.719 3.823 8.533 8.533 8.533S512 415.531 512 410.82v-17.067a8.531 8.531 0 0 0-8.533-8.533zm5.06-352.606c-1.715-4.386-6.673-6.571-11.051-4.847a8.526 8.526 0 0 0-4.855 11.051 33.959 33.959 0 0 1 2.313 12.382v1.22c0 4.719 3.823 8.533 8.533 8.533S512 57.131 512 52.42V51.2c0-6.4-1.169-12.646-3.473-18.586zm-5.06 45.406a8.53 8.53 0 0 0-8.533 8.533v17.067c0 4.719 3.823 8.533 8.533 8.533S512 108.331 512 103.62V86.554a8.531 8.531 0 0 0-8.533-8.534zm0 102.4a8.53 8.53 0 0 0-8.533 8.533v17.067c0 4.719 3.823 8.533 8.533 8.533S512 210.731 512 206.02v-17.067a8.531 8.531 0 0 0-8.533-8.533zm0 256a8.53 8.53 0 0 0-8.533 8.533l-.017 16.845c-.12 4.71 3.601 8.627 8.311 8.755h.23a8.535 8.535 0 0 0 8.525-8.311l.017-17.288a8.531 8.531 0 0 0-8.533-8.534zm0-307.2a8.53 8.53 0 0 0-8.533 8.533v17.067c0 4.719 3.823 8.533 8.533 8.533S512 159.531 512 154.82v-17.067a8.531 8.531 0 0 0-8.533-8.533zm0 102.4a8.53 8.53 0 0 0-8.533 8.533v17.067c0 4.719 3.823 8.533 8.533 8.533S512 261.931 512 257.22v-17.067a8.531 8.531 0 0 0-8.533-8.533zM338.901 494.933h-17.067a8.53 8.53 0 0 0-8.533 8.533 8.53 8.53 0 0 0 8.533 8.533h17.067a8.53 8.53 0 0 0 8.533-8.533 8.53 8.53 0 0 0-8.533-8.533zm51.2 0h-17.067a8.53 8.53 0 0 0-8.533 8.533 8.53 8.53 0 0 0 8.533 8.533h17.067a8.53 8.53 0 0 0 8.533-8.533 8.53 8.53 0 0 0-8.533-8.533zM384 8.533A8.53 8.53 0 0 0 375.467 0H358.4c-4.71 0-8.533 3.814-8.533 8.533s3.823 8.533 8.533 8.533h17.067A8.53 8.53 0 0 0 384 8.533zm-51.2 0A8.53 8.53 0 0 0 324.267 0H307.2c-4.71 0-8.533 3.814-8.533 8.533s3.823 8.533 8.533 8.533h17.067a8.53 8.53 0 0 0 8.533-8.533zm108.501 486.4h-17.067a8.53 8.53 0 0 0-8.533 8.533 8.53 8.53 0 0 0 8.533 8.533h17.067a8.53 8.53 0 0 0 8.533-8.533 8.53 8.53 0 0 0-8.533-8.533zm36.105-474.504c3.319 0 6.485-1.954 7.859-5.197 1.843-4.343-.188-9.353-4.523-11.196C474.428 1.357 467.721 0 460.8 0c-4.71 0-8.533 3.814-8.533 8.533s3.823 8.533 8.533 8.533c4.617 0 9.088.896 13.278 2.688a8.499 8.499 0 0 0 3.328.675zM435.2 8.533A8.53 8.53 0 0 0 426.667 0H409.6c-4.71 0-8.533 3.814-8.533 8.533s3.823 8.533 8.533 8.533h17.067a8.53 8.53 0 0 0 8.533-8.533zm48.683 477.415a34.154 34.154 0 0 1-11.614 7.023c-4.437 1.579-6.741 6.468-5.154 10.906a8.527 8.527 0 0 0 8.03 5.658 8.67 8.67 0 0 0 2.876-.495c6.46-2.304 12.314-5.845 17.399-10.505 3.473-3.191 3.712-8.585.521-12.058-3.184-3.473-8.585-3.704-12.058-.529zM227.9 284.1a8.523 8.523 0 0 0-12.066 0l-153.6 153.6a8.525 8.525 0 0 0 0 12.066c1.664 1.664 3.849 2.5 6.033 2.5s4.369-.836 6.033-2.5l153.6-153.6a8.525 8.525 0 0 0 0-12.066z"></path><path d="M170.667 435.2H76.8v-93.867c0-4.719-3.823-8.533-8.533-8.533s-8.533 3.814-8.533 8.533v102.4a8.53 8.53 0 0 0 8.533 8.533h102.4a8.53 8.53 0 0 0 8.533-8.533 8.53 8.53 0 0 0-8.533-8.533zM449.766 62.234a8.523 8.523 0 0 0-12.066 0l-153.6 153.6a8.523 8.523 0 0 0 0 12.066 8.51 8.51 0 0 0 6.033 2.5 8.509 8.509 0 0 0 6.033-2.5l153.6-153.6a8.523 8.523 0 0 0 0-12.066z"></path><path d="M443.733 59.733h-102.4c-4.71 0-8.533 3.814-8.533 8.533s3.823 8.533 8.533 8.533H435.2v93.867c0 4.719 3.823 8.533 8.533 8.533s8.533-3.814 8.533-8.533v-102.4a8.53 8.53 0 0 0-8.533-8.533z"></path>
		</symbol>
	
		<symbol id="icon-eye" viewBox="0 0 512.001 512.001">
			<path d="M503.698 231.895c-28.735-36.843-65.956-67.318-107.637-88.128-42.548-21.243-88.321-32.265-136.104-32.843-1.316-.036-6.6-.036-7.916 0-47.782.579-93.556 11.6-136.104 32.843-41.681 20.81-78.9 51.284-107.636 88.128a39.145 39.145 0 0 0 0 48.211c28.735 36.843 65.955 67.318 107.636 88.128 42.548 21.243 88.321 32.265 136.104 32.843 1.316.036 6.6.036 7.916 0 47.782-.579 93.556-11.6 136.104-32.843 41.681-20.81 78.901-51.284 107.637-88.128a39.145 39.145 0 0 0 0-48.211zM125.242 349.599c-38.92-19.432-73.678-47.892-100.517-82.303a18.344 18.344 0 0 1 0-22.591c26.838-34.411 61.596-62.871 100.517-82.303a293.777 293.777 0 0 1 33.839-14.33c-29.578 26.588-48.213 65.12-48.213 107.928 0 42.81 18.636 81.345 48.217 107.932a293.754 293.754 0 0 1-33.843-14.333zM256 380.303c-68.542 0-124.304-55.762-124.304-124.304S187.458 131.696 256 131.696 380.304 187.458 380.304 256 324.542 380.303 256 380.303zm231.275-113.008c-26.838 34.411-61.596 62.871-100.517 82.303a293.497 293.497 0 0 1-33.805 14.299c29.558-26.587 48.179-65.107 48.179-107.898 0-42.814-18.64-81.351-48.223-107.939a293.653 293.653 0 0 1 33.85 14.34c38.92 19.432 73.678 47.892 100.517 82.303a18.346 18.346 0 0 1-.001 22.592z"></path><path d="M256 202.804c-29.332 0-53.195 23.863-53.195 53.195s23.863 53.195 53.195 53.195 53.195-23.863 53.195-53.195c.001-29.332-23.862-53.195-53.195-53.195zm0 85.563c-17.847 0-32.368-14.519-32.368-32.368 0-17.848 14.519-32.367 32.368-32.367 17.847 0 32.367 14.519 32.367 32.367.001 17.849-14.52 32.368-32.367 32.368z"></path>
		</symbol>
	
		<symbol id="icon-login" viewBox="0 0 512 512">
			<path d="M131.5 472H60.693c-8.538 0-13.689-4.765-15.999-7.606-3.988-4.906-5.533-11.29-4.236-17.519 20.769-99.761 108.809-172.616 210.445-174.98 1.693.063 3.39.105 5.097.105 1.722 0 3.434-.043 5.142-.107 24.853.567 49.129 5.24 72.236 13.917 10.34 3.885 21.871-1.352 25.754-11.693 3.883-10.34-1.352-21.871-11.693-25.754a258.015 258.015 0 0 0-9.995-3.512C370.545 220.021 392 180.469 392 136 392 61.01 330.991 0 256 0S120 61.01 120 136c0 44.509 21.492 84.092 54.643 108.918-30.371 9.998-58.871 25.546-83.813 46.062-45.732 37.617-77.529 90.086-89.532 147.743-3.762 18.066.744 36.622 12.363 50.908C25.221 503.847 42.364 512 60.693 512H131.5c11.046 0 20-8.954 20-20s-8.954-20-20-20zM160 136c0-52.935 43.065-96 96-96s96 43.065 96 96c0 51.367-40.554 93.438-91.326 95.885a259.819 259.819 0 0 0-4.674-.052c-1.564 0-3.127.023-4.689.051C200.546 229.43 160 187.362 160 136z"></path><path d="M496.689 344.607c-8.561-19.15-27.845-31.558-49.176-31.607h-62.505c-22.5 0-42.13 13.26-50.029 33.807A239.822 239.822 0 0 0 331.302 357H200.356a20.003 20.003 0 0 0-14.35 6.068l-34.356 35.388c-7.567 7.794-7.529 20.203.085 27.95l35 35.612a20 20 0 0 0 14.264 5.981h65c11.046 0 20-8.954 20-20s-8.954-20-20-20h-56.614l-15.428-15.698L208.814 397h137.491a20 20 0 0 0 19.426-15.244c1.618-6.607 3.648-12.959 6.584-20.596 1.936-5.036 6.798-8.16 12.741-8.16h62.41c5.656.013 10.524 3.053 12.705 7.932 5.369 12.012 11.78 30.608 11.828 50.986.048 20.529-6.356 39.551-11.739 51.894-2.17 4.978-7.079 8.188-12.56 8.188h-63.158c-5.533-.013-10.716-3.573-12.896-8.858-2.339-5.671-4.366-12.146-6.197-19.797-2.571-10.742-13.367-17.366-24.105-14.796-10.743 2.571-17.367 13.364-14.796 24.106 2.321 9.699 4.978 18.118 8.121 25.738 8.399 20.364 27.939 33.555 49.827 33.606h63.251a53.623 53.623 0 0 0 49.18-32.201c6.912-15.851 15.137-40.511 15.072-67.975-.064-27.389-8.361-51.67-15.31-67.216z"></path><circle cx="431" cy="412" r="20"></circle>
		</symbol>
	
		<symbol id="icon-menu" viewBox="0 0 290 290">
			<path d="M0 220h70v70H0zm0-110h70v70H0zM0 0h70v70H0zm110 220h70v70h-70zm0-110h70v70h-70zm0-110h70v70h-70zm110 220h70v70h-70zm0-110h70v70h-70zm0-110h70v70h-70z"></path>
		</symbol>
	
		<symbol id="icon-placeholder" viewBox="-76 0 512 512">
			<path d="M0 180c0 35.23 10.176 69.34 29.43 98.664l137.761 226.14a15.003 15.003 0 0 0 25.621 0l137.758-226.14C349.824 249.34 360 215.23 360 180 360 80.746 279.254 0 180 0S0 80.746 0 180zM180 30c82.71 0 150 67.29 150 150 0 29.438-8.52 57.93-24.633 82.39-.097.15-.191.298-.281.45L180 468.168S54.73 262.539 54.633 262.391C38.52 237.93 30 209.437 30 180 30 97.29 97.29 30 180 30zm0 0"></path><path d="M180 300c66.168 0 120-53.832 120-120S246.168 60 180 60 60 113.832 60 180s53.832 120 120 120zM91.258 195h29.183c1.325 22.89 5.649 44.29 12.547 61.715-21.707-13.352-37.34-35.649-41.73-61.715zM180 90c9.594 0 26.465 28.113 29.52 75h-59.04c3.055-46.887 19.926-75 29.52-75zm29.52 105c-3.055 46.887-19.926 75-29.52 75s-26.465-28.113-29.52-75zm17.492 61.715c6.898-17.426 11.226-38.832 12.547-61.727h29.183c-4.39 26.07-20.023 48.375-41.73 61.727zM268.742 165H239.56c-1.325-22.89-5.649-44.29-12.547-61.715 21.707 13.352 37.34 35.649 41.73 61.715zm-135.754-61.715c-6.898 17.426-11.226 38.824-12.547 61.715H91.258c4.39-26.066 20.023-48.363 41.73-61.715zm0 0"></path>
		</symbol>
	
		<symbol id="icon-plane" viewBox="0 0 512 511">
			<path d="M82.402 280.121c-16.914-7.566-37.09-3.848-50.195 9.258L4.391 317.195c-6.903 6.903-5.465 18.453 2.89 23.47l88.153 52.89-33.786 33.78c-5.859 5.86-5.859 15.356 0 21.216 5.856 5.855 15.356 5.855 21.211 0l34.36-34.36 54.613 91.024c5.043 8.41 16.602 9.754 23.469 2.89l27.816-27.816c13.106-13.105 16.824-33.281 9.254-50.2l-22.742-50.827 73.937-67.414 142.903 171.64c5.636 6.77 15.886 7.254 22.133 1.008 29.593-29.594 36.941-75.351 16.91-113.05l-18.438-34.704 15.95-15.945c17.581-17.586 17.585-46.047 0-63.633-16.57-16.57-42.485-17.363-59.973-3.277l-18.246-34.34 103.191-94.082c30.75-27.36 32.168-74.856 3.027-103.996C461.93-7.625 414.422-6.285 387.027 24.5L292.95 127.691l-37.258-19.796c14.836-17.633 14.032-44.032-2.66-60.72-17.582-17.585-46.043-17.585-63.629 0l-16.652 16.65-31.703-16.845C104.086 27.344 58.18 33.71 28 63.895c-6.238 6.234-5.77 16.488 1.008 22.132l171.64 142.899-67.414 73.941zm338.2-1.746c5.859-5.86 15.347-5.863 21.207 0 5.859 5.86 5.863 15.348 0 21.207l-9.454 9.457-14.718-27.7zm18.421 107.148c11.04 20.778 10.172 45.063-1.355 64.536l-131.91-158.442 56.164-51.207c21.777 40.988 59.402 111.805 77.101 145.113zM210.613 68.387c5.86-5.86 15.344-5.864 21.207 0 5.86 5.86 5.864 15.343 0 21.207l-3.668 3.668-27.699-14.719zM62.437 74.824c19.473-11.527 43.758-12.394 64.536-1.351 14.75 7.84 129.46 68.785 145.109 77.101l-51.203 56.16zm85.657 256.27S409.355 44.539 409.398 44.488c15.946-17.976 43.563-18.66 60.414-1.808 16.856 16.855 16.165 44.476-1.804 60.414l-286.61 261.304a15.003 15.003 0 0 0-3.582 17.211l27.172 60.735c2.524 5.636 1.285 12.363-3.086 16.73l-14.23 14.235-48.59-80.985 6.145-6.144c5.855-5.856 5.855-15.352 0-21.211-5.856-5.856-15.356-5.856-21.211 0l-6.72 6.719-78.109-46.868 14.231-14.23c4.371-4.371 11.094-5.61 16.734-3.086l60.73 27.176a15.003 15.003 0 0 0 17.212-3.586zm0 0"></path>
		</symbol>
	
		<symbol id="icon-play-arrow" viewBox="0 0 124.512 124.512">
			<path d="M113.956 57.006l-97.4-56.2c-4-2.3-9 .6-9 5.2v112.5c0 4.6 5 7.5 9 5.2l97.4-56.2c4-2.401 4-8.2 0-10.5z"></path>
		</symbol>
	
</svg>
