<svg height="512pt" viewBox="0 -46 512 512" width="512pt" xmlns="http://www.w3.org/2000/svg"><path d="m482 182.578125v-137.578125c0-24.8125-20.1875-45-45-45h-362c-24.8125 0-45 20.1875-45 45v137.578125c-17.460938 6.195313-30 22.867187-30 42.421875v180c0 8.285156 6.714844 15 15 15h60c8.285156 0 15-6.714844 15-15v-45h332v45c0 8.285156 6.714844 15 15 15h60c8.285156 0 15-6.714844 15-15v-180c0-19.554688-12.539062-36.226562-30-42.421875zm-407-152.578125h362c8.269531 0 15 6.730469 15 15v135h-32.578125c1.664063-4.695312 2.578125-9.742188 2.578125-15v-30c0-24.8125-20.1875-45-45-45h-61c-24.8125 0-45 20.1875-45 45v30c0 5.257812.914062 10.304688 2.578125 15h-35.15625c1.664063-4.695312 2.578125-9.742188 2.578125-15v-30c0-24.8125-20.1875-45-45-45h-61c-24.8125 0-45 20.1875-45 45v30c0 5.257812.914062 10.304688 2.578125 15h-32.578125v-135c0-8.269531 6.730469-15 15-15zm226 135v-30c0-8.269531 6.730469-15 15-15h61c8.269531 0 15 6.730469 15 15v30c0 8.269531-6.730469 15-15 15h-61c-8.269531 0-15-6.730469-15-15zm-181 0v-30c0-8.269531 6.730469-15 15-15h61c8.269531 0 15 6.730469 15 15v30c0 8.269531-6.730469 15-15 15h-61c-8.269531 0-15-6.730469-15-15zm-75 45h422c8.269531 0 15 6.730469 15 15v45h-452v-45c0-8.269531 6.730469-15 15-15zm407 180v-45c0-8.285156-6.714844-15-15-15h-362c-8.285156 0-15 6.714844-15 15v45h-30v-90h452v90zm0 0"/></svg>