<svg xmlns="http://www.w3.org/2000/svg" viewBox="0 0 512.001 512.001"><path d="M503.172 423.724H8.828A8.829 8.829 0 0 1 0 414.896V97.104a8.829 8.829 0 0 1 8.828-8.828h494.345a8.829 8.829 0 0 1 8.828 8.828v317.792a8.83 8.83 0 0 1-8.829 8.828z" fill="#f5f5f5"/><path d="M255.999 256V88.276H8.828c-2.146 0-4.041.86-5.571 2.134L255.999 256zM508.743 90.41L255.999 256h255.999V97.104c.002-2.729-1.309-5.076-3.255-6.694zM3.256 421.591L255.999 256H0v158.896c0 2.729 1.311 5.076 3.256 6.695zM255.999 256v167.724h247.172c2.146 0 4.041-.86 5.571-2.134L255.999 256z" fill="#464655"/><path d="M277.186 243.641v28.248c0 11.682-9.504 21.186-21.186 21.186s-21.186-9.504-21.186-21.186v-28.248h42.372m7.062-14.124h-56.496a7.061 7.061 0 0 0-7.062 7.062v35.31c0 19.501 15.809 35.31 35.31 35.31s35.31-15.809 35.31-35.31v-35.31a7.063 7.063 0 0 0-7.062-7.062z" fill="#ff4b55"/><path d="M277.186 243.641v28.248c0 11.682-9.504 21.186-21.186 21.186s-21.186-9.504-21.186-21.186v-28.248h42.372" fill="#f5f5f5"/><g fill="#ffe15a"><circle cx="227.7" cy="236.58" r="3.531"/><circle cx="284.19" cy="236.58" r="3.531"/><circle cx="227.7" cy="264.83" r="3.531"/><circle cx="284.19" cy="264.83" r="3.531"/><circle cx="255.94" cy="236.58" r="3.531"/><circle cx="255.94" cy="300.41" r="3.531"/><circle cx="277.14" cy="290.87" r="3.531"/><circle cx="235.16" cy="290.87" r="3.531"/></g><path d="M260.561 263.038v6.081c0 2.515-2.046 4.561-4.561 4.561s-4.561-2.046-4.561-4.561v-6.081h9.122m0-14.419v6.081c0 2.515-2.046 4.561-4.561 4.561s-4.561-2.046-4.561-4.561v-6.081h9.122m0 28.984v6.081c0 2.515-2.046 4.561-4.561 4.561s-4.561-2.046-4.561-4.561v-6.081h9.122m12.285-14.565v6.081c0 2.515-2.046 4.561-4.561 4.561s-4.562-2.046-4.562-4.561v-6.081h9.123m-24.571 0v6.081c0 2.515-2.046 4.561-4.561 4.561s-4.561-2.046-4.561-4.561v-6.081h9.122" fill="#41479b"/><path d="M290.186 229.517h-68.024a4.154 4.154 0 0 1-4.154-4.154v-2.596a4.154 4.154 0 0 1 4.154-4.154h68.024a4.154 4.154 0 0 1 4.154 4.154v2.596a4.153 4.153 0 0 1-4.154 4.154z" fill="#ffe15a"/><path fill="#ff4b55" d="M256.174 221.339l-5.452 2.726 5.452 2.727 5.453-2.727z"/><g fill="#4173cd"><ellipse cx="273.9" cy="224.07" rx="4.089" ry="2.727"/><ellipse cx="238.46" cy="224.07" rx="4.089" ry="2.727"/></g><g fill="#f5f5f5"><circle cx="265.72" cy="224.07" r="1.363"/><circle cx="282.07" cy="224.07" r="1.363"/><circle cx="246.63" cy="224.07" r="1.363"/><circle cx="230.28" cy="224.07" r="1.363"/></g><path d="M218.008 222.702v2.726l2.726 1.364 5.453-2.727-5.453-2.726zm76.333 2.726v-2.726l-2.727-1.363-5.452 2.726 5.452 2.727z" fill="#ff4b55"/><path d="M238.032 200.88c-.87-.428-1.903-.164-2.774.509.447-.661.703-1.543.654-2.502-.099-1.95-1.399-3.469-2.902-3.392-1.504.076-2.642 1.719-2.543 3.669.053 1.036.457 1.928 1.038 2.546-1.174-.573-2.458-.518-3.243.268-1.065 1.064-.809 3.047.573 4.427 1.38 1.382 3.363 1.637 4.428.573.297-.297.468-.673.563-1.081.217.57.552 1.065 1.082 1.326 1.351.665 3.145-.215 4.008-1.966.862-1.752.467-3.712-.884-4.377zm-4.008 1.966c-.2.406-.317.822-.386 1.231-.203-.537-.489-1.067-.949-1.528-.079-.079-.175-.117-.259-.19.299.124.61.212.939.195.441-.023.833-.211 1.19-.47-.189.241-.39.469-.535.762zm39.06 2.41c.863 1.751 2.657 2.632 4.008 1.966.531-.262.865-.757 1.082-1.326.096.407.266.783.563 1.081 1.065 1.065 3.047.809 4.428-.573 1.38-1.38 1.636-3.363.573-4.427-.786-.786-2.069-.841-3.243-.268.582-.618.985-1.51 1.038-2.546.099-1.95-1.039-3.593-2.543-3.669s-2.803 1.442-2.902 3.392c-.049.96.207 1.841.654 2.502-.871-.673-1.905-.937-2.774-.509-1.352.666-1.747 2.626-.884 4.377zm4.356-3.171c.356.26.748.448 1.19.47.329.017.64-.072.939-.195-.083.072-.18.11-.259.19-.46.46-.746.991-.949 1.528a4.353 4.353 0 0 0-.386-1.231c-.144-.294-.345-.522-.535-.762z" fill="#f5f5f5"/><path d="M305.754 192.872c-3.927-1.398-12.188-2.146-15.332 4.992a2.726 2.726 0 0 0 1.395 3.594c1.332.588 2.862.006 3.513-1.281l1.027 1.217a27.382 27.382 0 0 0-1.302 5.322c-1.402 5.814-6.801 6.445-9.069 6.445-3.659 0-5.728-3.922-5.748-3.961a2.745 2.745 0 0 0-4.118-.908c-1.494 1.174-6.141 4.345-9.646 4.904-1.69.271-3.07-.011-4.001-.809-.755-.644-1.022-1.453-1.022-1.951 0-1.222 1.503-2.727 2.727-2.727.927 0 1.282.594 1.282.594a2.727 2.727 0 0 0 4.931-2.327c-.529-1.118-1.986-2.842-4.38-3.467a28.946 28.946 0 0 0 3.62-8.43l-8.179-2.727s2.727-8.179-5.452-8.179-5.452 8.179-5.452 8.179l-8.179 2.727a28.935 28.935 0 0 0 3.62 8.43c-2.393.625-3.851 2.349-4.38 3.467a2.727 2.727 0 1 0 4.928 2.332s.359-.599 1.284-.599c1.224 0 2.727 1.504 2.727 2.727 0 .498-.267 1.308-1.022 1.951-.931.799-2.311 1.081-4.001.809-3.507-.559-8.153-3.73-9.646-4.904a2.747 2.747 0 0 0-4.118.908c-.02.04-2.089 3.961-5.748 3.961-2.269 0-7.666-.631-9.069-6.445a27.31 27.31 0 0 0-1.301-5.322l1.027-1.217c.651 1.288 2.182 1.869 3.513 1.281a2.725 2.725 0 0 0 1.395-3.594c-3.144-7.137-11.405-6.389-15.332-4.992a2.728 2.728 0 0 0 .202 5.203c3.34.897 4.839 7.282 5.1 9.445.012.093.03.192.05.285 1.524 6.666 7.049 10.809 14.414 10.809 4.223 0 7.142-2.391 8.836-4.372 2.388 1.574 6.231 3.767 9.818 4.337.689.109 1.362.166 2.019.166 2.463 0 4.679-.759 6.379-2.21 1.838-1.568 2.935-3.85 2.935-6.099 0 2.25 1.097 4.531 2.935 6.099 1.699 1.451 3.916 2.21 6.379 2.21.658 0 1.331-.056 2.019-.166 3.587-.569 7.431-2.763 9.818-4.337 1.695 1.981 4.613 4.372 8.836 4.372 7.367 0 12.89-4.142 14.415-10.809.02-.093.038-.192.05-.285.26-2.165 1.76-8.548 5.099-9.445a2.724 2.724 0 0 0 2.015-2.527 2.723 2.723 0 0 0-1.811-2.676z" fill="#ffe15a"/><g fill="#4173cd"><ellipse transform="rotate(157.473 210.214 202.249)" cx="210.213" cy="202.248" rx="2.727" ry="4.089"/><ellipse transform="rotate(22.527 301.785 202.263)" cx="301.78" cy="202.267" rx="2.727" ry="4.089"/><ellipse cx="256" cy="199.53" rx="4.089" ry="5.452"/></g></svg>