<svg xmlns="http://www.w3.org/2000/svg" viewBox="0 0 512.001 512.001"><path d="M0 136.198h512V97.104a8.829 8.829 0 0 0-8.828-8.828H8.828A8.829 8.829 0 0 0 0 97.104v39.094z" fill="#73af00"/><path fill="#f5f5f5" d="M0 136.2h512v47.923H0z"/><path fill="#73af00" d="M0 184.12h512v47.923H0z"/><path fill="#f5f5f5" d="M0 232.04h512v47.923H0z"/><path fill="#73af00" d="M0 279.97h512v47.923H0z"/><path fill="#f5f5f5" d="M0 327.88h512v47.923H0z"/><path d="M8.828 423.724h494.345a8.829 8.829 0 0 0 8.828-8.828v-39.094H0v39.094a8.828 8.828 0 0 0 8.828 8.828z" fill="#73af00"/><path d="M8.828 232.04h238.344a8.829 8.829 0 0 0 8.828-8.828V97.104a8.829 8.829 0 0 0-8.828-8.828H8.828A8.829 8.829 0 0 0 0 97.104v126.108a8.829 8.829 0 0 0 8.828 8.828z" fill="#ff4b55"/><path d="M135.749 220.69h-14.233a3.095 3.095 0 0 1-2.902-2.02l-4.583-12.372a38.561 38.561 0 0 1-2.362-15.115l1.596-35.735a2.246 2.246 0 0 1 4.49.101v16.273a.824.824 0 1 0 1.647.041l1.279-25.948a2.204 2.204 0 0 1 4.401.029l.883 24.191a.828.828 0 1 0 1.655-.015l.531-26.881a2.177 2.177 0 1 1 4.352-.062l1.312 27.17a.836.836 0 0 0 1.671-.015l.658-21.052a2.204 2.204 0 0 1 3.151-1.921 2.203 2.203 0 0 1 1.252 1.86l1.532 25.838 4.099 11.957c.231.672 1.174.684 1.418.018 1.161-3.169 3.796-9.087 8.024-11.693a2.151 2.151 0 0 1 2.413.126 2.164 2.164 0 0 1 .271 3.217c-2.061 2.194-5.066 6.805-4.849 14.912a4.647 4.647 0 0 1-.881 2.879l-11.55 15.778a11.712 11.712 0 0 0-2.157 5.366l-.052.387a3.09 3.09 0 0 1-3.066 2.686zm-7.078-120.324l2.319 6.954 7.33.056c.568.004.803.729.346 1.067l-5.897 4.354 2.211 6.989c.171.542-.445.99-.907.659l-5.964-4.263-5.964 4.263c-.462.33-1.078-.118-.907-.659l2.211-6.989-5.897-4.354c-.457-.338-.222-1.063.346-1.067l7.33-.056 2.319-6.954c.181-.539.944-.539 1.124 0zm-34.483 10.006l2.319 6.954 7.33.056c.568.004.803.729.346 1.067l-5.897 4.354 2.211 6.989c.171.542-.445.99-.907.659l-5.964-4.263-5.964 4.263c-.462.33-1.078-.118-.907-.659l2.211-6.989-5.897-4.354c-.457-.338-.222-1.063.346-1.067l7.33-.056 2.319-6.954c.183-.54.944-.54 1.124 0zm69.804 0l2.319 6.954 7.33.056c.568.004.803.729.346 1.067l-5.897 4.354 2.211 6.989c.171.542-.445.99-.907.659l-5.964-4.263-5.964 4.263c-.462.33-1.078-.118-.907-.659l2.211-6.989-5.897-4.354c-.457-.338-.222-1.063.346-1.067l7.33-.056 2.319-6.954c.183-.54.944-.54 1.124 0zm23.126 26.294l2.319 6.954 7.33.056c.568.004.803.729.346 1.067l-5.897 4.354 2.211 6.989c.171.542-.445.99-.907.659l-5.964-4.263-5.964 4.263c-.462.33-1.078-.118-.907-.659l2.211-6.989-5.897-4.354c-.457-.338-.222-1.063.346-1.067l7.33-.056 2.319-6.954c.183-.539.944-.539 1.124 0zm-117.979 0l2.319 6.954 7.33.056c.568.004.803.729.346 1.067l-5.897 4.354 2.211 6.989c.171.542-.445.99-.907.659l-5.964-4.263-5.964 4.263c-.462.33-1.078-.118-.907-.659l2.211-6.989-5.897-4.354c-.457-.338-.222-1.063.346-1.067l7.33-.056 2.319-6.954c.181-.539.944-.539 1.124 0zm124.631 34.491l2.319 6.954 7.33.056c.568.004.803.729.346 1.067l-5.897 4.354 2.211 6.989c.171.542-.445.99-.907.659l-5.964-4.263-5.964 4.263c-.462.33-1.078-.118-.907-.659l2.211-6.989-5.897-4.354c-.457-.338-.222-1.063.346-1.067l7.33-.056 2.319-6.954c.181-.539.944-.539 1.124 0zm-133.618 0l2.319 6.954 7.33.056c.568.004.803.729.346 1.067l-5.897 4.354 2.211 6.989c.171.542-.445.99-.907.659l-5.964-4.263-5.964 4.263c-.462.33-1.078-.118-.907-.659l2.211-6.989-5.897-4.354c-.457-.338-.222-1.063.346-1.067l7.33-.056 2.319-6.954c.182-.539.944-.539 1.124 0z" fill="#f5f5f5"/></svg>