<svg xmlns="http://www.w3.org/2000/svg" viewBox="0 0 512.001 512.001"><path d="M503.172 423.725H8.828A8.829 8.829 0 0 1 0 414.897V97.104a8.829 8.829 0 0 1 8.828-8.828h494.345a8.829 8.829 0 0 1 8.828 8.828v317.793a8.83 8.83 0 0 1-8.829 8.828z" fill="#41479b"/><path d="M267.31 202.484c-5.103-.966-11.31-7.448-9.103-11.034s-1.931-11.586-6.897-8.828c-4.966 2.759-8.276 6.069-12.966 7.172s-8.552 4.69-4.966 8 9.103 9.931 3.862 16.828-3.586 2.207-9.931 5.241-10.759 9.103-8.828 12.69c1.931 3.586 3.586 4.966-1.931 7.448s-8 .828-12.414 1.931-15.172 6.621-18.483 11.31c-3.31 4.69-10.483.276-13.517-.276s-9.103 1.655-10.483 5.241c-1.379 3.586 1.103 6.897 6.345 8.552 5.241 1.655 7.448 1.931 4.966 6.345s-.828 12.966 3.31 15.448c4.138 2.483 12.138 10.207 12.138 15.448s-1.103 12.966 6.621 14.069c7.724 1.103 19.586 4.414 23.724 11.586s5.241 11.31 6.069 15.724 1.655 8 4.138 12.966 4.138 13.517 1.655 15.448c-2.483 1.931-4.414 3.31-2.483 7.034s2.345 5.103 5.931 3.034 3.586.138 5.517-.276 10.759-3.586 9.103-7.862c-1.655-4.276-5.241-14.069-.138-19.172s12-5.931 16.414-9.379 11.724-4 17.379-9.517c5.655-5.517 11.724-2.207 12.69 1.655s2.483 11.31 6.897 11.172 5.379-.138 6.207-5.517c.828-5.379 7.724-17.379 10.483-15.862 2.759 1.517 5.241.276 5.379-2.069.138-2.345 5.379-4.414 7.586-1.103 2.207 3.31 7.034 5.931 6.897 1.793-.138-4.138-5.793-3.586-5.931-8.138s4.552-7.448 8.69-9.379c4.138-1.931 1.655-6.897 2.897-9.655 1.241-2.759 8-6.207 8.276-8.966.276-2.759-1.655-3.862 1.241-4.552 2.897-.69 6.483-1.931 4.414-5.103s-1.379-5.517.828-7.034c2.207-1.517 3.242-8.718.023-9.654-3.22-.935-9.035 1.766-10.489 3.531-1.454 1.766-7.373-5.816-10.178-7.686-2.804-1.869-20.875-.727-20.459-3.842.416-3.115 8-14.487 4.69-16.28s-8.552-4.414-12.828-5.793-3.31 3.31-5.655-.414-3.172-16.966-5.793-16.966-4.552 5.517-5.655 3.448.414-16.414-5.655-16.69-6.207 3.31-9.655.69c-3.449-2.619-2.955-1.438-9.932-2.757z" fill="#ff9b55"/><path d="M229.837 124.014l-4.583 13.74-14.484.113c-.794.007-1.123 1.02-.484 1.491l11.651 8.604-4.369 13.81c-.239.757.622 1.384 1.269.921l11.783-8.423 11.784 8.423c.646.461 1.508-.164 1.269-.921l-4.369-13.81 11.651-8.604c.639-.471.31-1.485-.484-1.491l-14.484-.113-4.583-13.74c-.25-.752-1.316-.752-1.567 0zm51.035 0l-4.583 13.74-14.484.113c-.794.007-1.123 1.02-.484 1.491l11.651 8.604-4.369 13.81c-.239.757.622 1.384 1.269.921l11.784-8.423 11.784 8.423c.646.461 1.508-.164 1.269-.921l-4.369-13.81 11.651-8.604c.639-.471.309-1.485-.484-1.491l-14.484-.113-4.583-13.74c-.252-.752-1.318-.752-1.568 0zm-101.38 8.414l-4.583 13.74-14.484.113c-.794.007-1.123 1.02-.484 1.491l11.651 8.604-4.369 13.81c-.239.757.622 1.384 1.269.921l11.784-8.423 11.784 8.423c.646.461 1.508-.164 1.269-.921l-4.369-13.81 11.651-8.604c.639-.471.31-1.485-.484-1.491l-14.484-.113-4.583-13.74c-.251-.753-1.317-.753-1.568 0zm-47.633 17.313l-4.583 13.74-14.484.113c-.794.007-1.123 1.02-.484 1.491l11.651 8.604-4.369 13.81c-.239.757.622 1.384 1.269.921l11.784-8.423 11.784 8.423c.646.461 1.508-.164 1.269-.921l-4.369-13.81 11.651-8.604c.639-.471.31-1.485-.484-1.491l-14.484-.113-4.583-13.74c-.251-.752-1.317-.752-1.568 0zm200.788-17.313l4.583 13.74 14.484.113c.794.007 1.123 1.02.484 1.491l-11.651 8.604 4.369 13.81c.239.757-.622 1.384-1.269.921l-11.784-8.423-11.784 8.423c-.646.461-1.508-.164-1.269-.921l4.369-13.81-11.651-8.604c-.639-.471-.31-1.485.484-1.491l14.483-.113 4.583-13.74c.252-.753 1.318-.753 1.569 0zm47.633 17.313l4.583 13.74 14.484.113c.794.007 1.123 1.02.484 1.491l-11.651 8.604 4.369 13.81c.239.757-.622 1.384-1.269.921l-11.784-8.423-11.784 8.423c-.646.461-1.508-.164-1.269-.921l4.369-13.81-11.651-8.604c-.639-.471-.309-1.485.484-1.491l14.484-.113 4.583-13.74c.251-.752 1.317-.752 1.568 0z" fill="#f5f5f5"/></svg>