<svg xmlns="http://www.w3.org/2000/svg" viewBox="0 0 512 512"><path d="M170.667 423.721H8.828A8.829 8.829 0 0 1 0 414.893V97.101a8.829 8.829 0 0 1 8.828-8.828h161.839v335.448z" fill="#f5f5f5"/><path fill="#4173cd" d="M170.67 88.277h170.67v335.45H170.67z"/><path d="M503.172 423.721H341.333V88.273h161.839A8.829 8.829 0 0 1 512 97.101v317.792a8.828 8.828 0 0 1-8.828 8.828z" fill="#ffe15a"/><path d="M229.356 265.79c-.102 2.636-4.055 3.751-4.055 3.751-.405-4.46 4.157-12.671 5.068-13.38.913-.71 4.562-4.055.913-3.346-3.649.71-7.198 8.92-8.009 10.339s-2.737 1.318-2.737 1.318v-8.008c0-1.419 6.285-4.46 6.285-4.46s1.014-6.082.102-6.69c-.913-.608-2.838 1.116-5.576 1.318-2.737.203-6.082.305-8.92 2.94-2.838 2.636-2.94 4.46-2.94 8.92v10.745c0 10.745-10.036 18.247-13.786 21.997-1.021 1.021-1.412 2.27-1.446 3.58-.754.706-2.417 1.735-3.806 1.437-2.135-.459-2.453-4.213-2.453-6.41a1.215 1.215 0 1 0-2.432 0c0 7.432 3.164 8.755 5.048 8.884.104.007.207.01.313.01 1.249 0 2.592-.493 3.706-1.181.725 2.624 2.252 5.063 2.69 6.048.811 1.825-3.649 4.765-3.649 4.765l3.649 11.252h4.968c0-2.787-3.395-2.23-3.903-2.94-.506-.71-1.114-7.147-1.114-7.147l7.048-5.897a2.395 2.395 0 0 0 .858-1.837v-3.138s5.17.836 6.463 1.976c1.292 1.141.152 4.562.152 5.017 0 .456 6.538 6.234 6.538 6.234h4.486c0-2.052-2.129-1.976-3.193-2.357-1.065-.38-4.257-4.333-4.257-4.333s1.724-5.347 1.724-6.665-7.4-6.69-7.4-6.69 1.014-1.724 8.515-6.387c7.501-4.663 6.893-9.934 6.893-9.934l6.488-7.298v-5.271c-.001-.001-2.13.202-2.231 2.838zm53.473 0c.102 2.636 4.055 3.751 4.055 3.751.405-4.46-4.157-12.671-5.068-13.38-.913-.71-4.562-4.055-.913-3.346 3.649.71 7.198 8.92 8.009 10.339s2.737 1.318 2.737 1.318v-8.008c0-1.419-6.285-4.46-6.285-4.46s-1.014-6.082-.102-6.69c.913-.608 2.838 1.116 5.576 1.318 2.737.203 6.082.305 8.92 2.94 2.838 2.636 2.94 4.46 2.94 8.92v10.745c0 10.745 10.036 18.247 13.786 21.997 1.021 1.021 1.412 2.27 1.445 3.58.754.706 2.417 1.735 3.806 1.437 2.135-.459 2.453-4.213 2.453-6.41a1.215 1.215 0 1 1 2.432 0c0 7.432-3.164 8.755-5.048 8.884-.104.007-.207.01-.313.01-1.249 0-2.592-.493-3.706-1.181-.725 2.624-2.252 5.063-2.69 6.048-.811 1.825 3.649 4.765 3.649 4.765l-3.649 11.252h-4.968c0-2.787 3.396-2.23 3.903-2.94.507-.71 1.114-7.147 1.114-7.147l-7.048-5.897a2.395 2.395 0 0 1-.858-1.837v-3.138s-5.17.836-6.463 1.976c-1.292 1.141-.152 4.562-.152 5.017s-6.538 6.234-6.538 6.234h-4.486c0-2.052 2.129-1.976 3.193-2.357 1.065-.38 4.257-4.333 4.257-4.333s-1.724-5.347-1.724-6.665 7.4-6.69 7.4-6.69-1.014-1.724-8.515-6.387-6.893-9.934-6.893-9.934l-6.488-7.298v-5.271c.002-.001 2.13.202 2.232 2.838z" fill="#c17400"/><path d="M246.334 258.846l-7.298 7.298h14.598zm19.464 0l-7.298 7.298h14.596zm-19.464 12.165l-7.298 7.298h14.598zm19.464 0l-7.298 7.298h14.596zm-19.464 12.164l-7.298 7.298h14.598zm19.464 0l-7.298 7.298h14.596zm-9.731 12.164l-7.3 7.298h14.598z" fill="#c8c8c8"/><g fill="#ffe15a"><path d="M254.85 219.927h2.433v14.597h-2.433z"/><path d="M242.723 234.812c-.041-.157-.937-3.892 1.579-6.614 2.216-2.4 6.247-3.132 11.965-2.178l-.399 2.4c-4.798-.803-8.178-.307-9.779 1.428-1.608 1.741-1.012 4.35-1.006 4.376l-2.36.588z"/><path d="M236.059 242.904c-3.04-1.521-4.534-5.935-3.263-9.641.533-1.554 2.929-6.49 11.345-4.804l-.478 2.386c-4.446-.896-7.561.282-8.565 3.208-.867 2.526.11 5.707 2.049 6.676l-1.088 2.175zm33.352-8.092l-2.359-.589 1.18.295-1.182-.29c.007-.026.61-2.649-1.018-4.395-1.608-1.725-4.984-2.215-9.764-1.414l-.399-2.4c5.726-.956 9.75-.221 11.965 2.178 2.514 2.723 1.616 6.458 1.577 6.615z"/><path d="M276.073 242.904l-1.088-2.176c1.939-.969 2.916-4.151 2.049-6.676-1.004-2.925-4.125-4.1-8.565-3.208l-.478-2.386c8.422-1.685 10.812 3.253 11.345 4.804 1.272 3.707-.223 8.121-3.263 9.642z"/></g><path d="M265.798 234.517s-4.866-2.433-9.731-2.433-9.731 2.433-9.731 2.433c-4.866-2.433-12.164 0-12.164 4.866s7.298 12.164 7.298 12.164h29.195s7.298-7.298 7.298-12.164-7.299-7.299-12.165-4.866z" fill="#ff4b55"/><path fill="#ffe15a" d="M253.64 221.137h4.866v2.433h-4.866z"/><g fill="#c8c8c8"><path d="M231.74 207.757h48.662v9.731H231.74z"/><path d="M235.455 214.008l2.307 6.923-14.597 4.863-2.307-6.923zm41.245.019l14.598 4.865-2.307 6.923-14.598-4.866z"/></g><path d="M256.067 311.153c-14.085 0-25.546-7.094-25.546-15.813v-41.359a3.653 3.653 0 0 1 3.649-3.649h43.792a3.653 3.653 0 0 1 3.649 3.649v41.359c.001 8.719-11.459 15.813-25.544 15.813zm-21.897-58.389c-.671 0-1.216.546-1.216 1.216v41.359c0 7.377 10.368 13.38 23.113 13.38s23.113-6.004 23.113-13.38V253.98c0-.67-.545-1.216-1.216-1.216H234.17z" fill="#464655"/></svg>