<svg xmlns="http://www.w3.org/2000/svg" viewBox="0 0 512.001 512.001"><path d="M0 125.548h512V97.104a8.829 8.829 0 0 0-8.828-8.828H8.828A8.829 8.829 0 0 0 0 97.104v28.444z" fill="#ffe15a"/><path fill="#ff4b55" d="M0 125.55h512v37.27H0z"/><path fill="#ffe15a" d="M0 162.82h512v37.27H0z"/><path fill="#ff4b55" d="M0 200.09h512v37.27H0z"/><path d="M0 237.36h512v37.27H0zm8.828 186.364h494.345a8.829 8.829 0 0 0 8.828-8.828v-28.445H0v28.445a8.828 8.828 0 0 0 8.828 8.828z" fill="#ffe15a"/><path fill="#ff4b55" d="M0 274.641h512v37.27H0z"/><path fill="#ffe15a" d="M0 311.91h512v37.27H0z"/><path fill="#ff4b55" d="M0 349.18h512v37.27H0z"/><path d="M247.172 256H8.828A8.829 8.829 0 0 1 0 247.172V97.104a8.829 8.829 0 0 1 8.828-8.828h238.344A8.829 8.829 0 0 1 256 97.104v150.069a8.827 8.827 0 0 1-8.828 8.827z" fill="#64466e"/><path d="M235.441 162.614h-20.327v-23.231h2.904v-5.807h-29.039v5.807h2.904v23.231h-11.615v-23.231h2.903v-5.807h-29.039v5.807h2.904v23.231h-17.422v-29.038h2.904v-5.807H113.48v5.807h2.904v29.038H98.961v-23.231h2.904v-5.807H72.827v5.807h2.904v23.231H64.116v-23.231h2.904v-5.807H37.982v5.807h2.904v23.231H17.655v5.807h2.904v52.268h40.654v-17.422a5.807 5.807 0 1 1 11.614 0v17.422h29.039v-17.422a5.807 5.807 0 1 1 11.614 0v17.422h5.808v-20.327a8.713 8.713 0 0 1 17.424 0v20.327h5.808v-17.422a5.807 5.807 0 1 1 11.614 0v17.422h29.035v-17.422a5.807 5.807 0 1 1 11.614 0v17.422h40.654v-52.268h2.904v-5.807h-2.9zm-177.133 23.23H46.693v-17.422a5.807 5.807 0 1 1 11.614 0l.001 17.422zm34.846 0H81.539v-17.422a5.807 5.807 0 1 1 11.614 0l.001 17.422zm40.653-17.422h-11.615v-11.615a5.807 5.807 0 1 1 11.614 0l.001 11.615zm40.653 17.422h-11.615v-17.422a5.807 5.807 0 1 1 11.614 0l.001 17.422zm34.846 0h-11.615v-17.422a5.807 5.807 0 1 1 11.614 0l.001 17.422z" fill="#f5f5f5"/></svg>