<svg xmlns="http://www.w3.org/2000/svg" viewBox="0 0 512 512"><path d="M341.333 88.273h161.839A8.829 8.829 0 0 1 512 97.101v317.793a8.829 8.829 0 0 1-8.828 8.828H341.333V88.273z" fill="#41479b"/><path fill="#ffe15a" d="M170.67 88.277h170.67v335.45H170.67z"/><path d="M8.828 88.273h161.839v335.448H8.828A8.829 8.829 0 0 1 0 414.893V97.1a8.828 8.828 0 0 1 8.828-8.827z" fill="#41479b"/><path fill="#ff4b55" d="M300.138 233.928h-22.069v-22.069l13.241-17.655h-70.62l13.241 17.655v22.069h-22.069l-17.655-13.241v70.62l17.655-13.241h22.069v22.069L220.69 317.79h70.62l-13.241-17.655v-22.069h22.069l17.655 13.241v-70.62z"/><path fill="#f5f5f5" d="M300.138 247.169h-35.31v-35.31h-17.656v35.31h-35.31v17.656h35.31v35.31h17.656v-35.31h35.31z"/></svg>