<svg xmlns="http://www.w3.org/2000/svg" viewBox="0 0 511.999 511.999"><path d="M203.034 423.724H8.828A8.829 8.829 0 0 1 0 414.896V97.104a8.829 8.829 0 0 1 8.828-8.828h194.206v335.448z" fill="#41479b"/><path d="M503.172 422.621H203.034V88.277h300.137a8.829 8.829 0 0 1 8.828 8.828v316.689a8.826 8.826 0 0 1-8.827 8.827z" fill="#f5f5f5"/><path d="M262.585 254.073a16.367 16.367 0 0 0-10.223 3.586l-17.602 14.082a16.362 16.362 0 0 1-10.223 3.586h-4.886v-2.81a7.817 7.817 0 0 1 7.817-7.817h8.124v-3.788a6.84 6.84 0 0 0-6.839-6.839h-3.788a5.313 5.313 0 0 0-5.313-5.313c-14.673 0-26.568 11.895-26.568 26.568h-10.2a16.365 16.365 0 0 1-10.222-3.586l-17.603-14.082a16.36 16.36 0 0 0-10.222-3.586H67.32c-2.612 0-3.919 3.157-2.072 5.004l26.829 26.829a18.305 18.305 0 0 0 12.943 5.362h18.986l15.586 11.69a21.247 21.247 0 0 0 12.753 4.25h19.484c3.345 0 6.495-1.575 8.501-4.25l2.125-2.834v12.398l-13.112 26.226c-1.3 2.599.59 5.656 3.496 5.656h42.903a3.908 3.908 0 0 0 3.908-3.908v-47.456l7.439 9.919a10.625 10.625 0 0 0 8.502 4.25h19.484c4.599 0 9.074-1.492 12.753-4.25l15.586-11.69H302.4c4.855 0 9.511-1.929 12.943-5.362l26.829-26.829c1.846-1.846.538-5.004-2.072-5.004h-77.515v-.002zm-57.849-86.094l2.54 7.617 8.03.062c1.039.008 1.471 1.335.634 1.952l-6.46 4.77 2.422 7.656c.313.991-.815 1.811-1.661 1.206l-6.532-4.669-6.532 4.669c-.845.605-1.974-.215-1.661-1.206l2.422-7.656-6.46-4.77c-.836-.618-.405-1.944.634-1.952l8.03-.062 2.54-7.617c.33-.987 1.725-.987 2.054 0zM86.789 215.982l7.182 3.59 5.721-5.634c.74-.729 1.984-.096 1.83.932l-1.195 7.94 7.126 3.701c.922.479.704 1.857-.321 2.027l-7.921 1.318-1.318 7.921c-.171 1.025-1.548 1.244-2.027.321l-3.701-7.126-7.94 1.195c-1.028.154-1.662-1.088-.932-1.83l5.634-5.721-3.59-7.182c-.464-.929.522-1.916 1.452-1.452zm235.291 1.453l-3.589 7.182 5.634 5.721c.729.74.096 1.984-.932 1.83l-7.94-1.195-3.701 7.126c-.479.922-1.857.704-2.027-.321l-1.318-7.921-7.921-1.318c-1.025-.171-1.244-1.548-.321-2.027l7.126-3.701-1.195-7.94c-.154-1.028 1.088-1.662 1.829-.932l5.721 5.634 7.182-3.59c.93-.465 1.917.522 1.452 1.452zm-181.093-37.186l5.262 6.066 7.442-3.016c.963-.391 1.869.67 1.333 1.561l-4.142 6.879 5.167 6.146c.669.796-.06 1.985-1.073 1.75l-7.822-1.814-4.248 6.814c-.55.882-1.907.556-1.996-.479l-.692-8-7.793-1.935c-1.009-.25-1.119-1.641-.161-2.047l7.394-3.13-.568-8.01c-.072-1.035 1.216-1.569 1.897-.785zm127.34.787l-.568 8.01 7.394 3.13c.958.405.847 1.796-.161 2.047l-7.793 1.935-.692 8c-.089 1.036-1.445 1.362-1.996.479l-4.248-6.814-7.822 1.814c-1.013.235-1.741-.954-1.073-1.75l5.167-6.146-4.142-6.879c-.536-.89.37-1.951 1.333-1.561l7.442 3.016 5.262-6.066c.681-.786 1.97-.252 1.897.785zm-96.07-10.06l3.978 6.975 7.887-1.505c1.021-.195 1.703 1.022 1.003 1.791l-5.405 5.939 3.869 7.036c.501.911-.446 1.935-1.394 1.507l-7.318-3.305-5.496 5.854c-.712.758-1.978.174-1.864-.86l.882-7.981-7.266-3.418c-.941-.442-.777-1.827.242-2.038l7.863-1.628 1.005-7.967c.131-1.032 1.5-1.304 2.014-.4zm124.739 25.613l-2.12 7.745 6.642 4.513c.86.584.481 1.927-.557 1.975l-8.021.377-2.239 7.711c-.29.999-1.684 1.053-2.051.081l-2.838-7.511-8.025.253c-1.039.033-1.522-1.276-.711-1.926l6.268-5.02-2.721-7.554c-.352-.978.744-1.842 1.612-1.271l6.711 4.409 6.344-4.922c.821-.638 1.981.137 1.706 1.14zm-184.867-1.141l6.344 4.922 6.711-4.409c.868-.57 1.964.292 1.612 1.271l-2.721 7.554 6.268 5.02c.811.65.329 1.959-.711 1.926l-8.025-.253-2.838 7.511c-.367.972-1.761.918-2.051-.081l-2.239-7.711-8.021-.377c-1.038-.049-1.417-1.391-.557-1.975l6.642-4.513-2.12-7.745c-.276-1.002.884-1.777 1.706-1.14zm125.045-24.072l1.005 7.967 7.863 1.628c1.018.211 1.182 1.596.242 2.038l-7.266 3.418.882 7.981c.114 1.033-1.153 1.618-1.864.86l-5.496-5.854-7.318 3.305c-.948.428-1.895-.597-1.394-1.507l3.869-7.036-5.405-5.939c-.7-.769-.018-1.986 1.003-1.791l7.887 1.505 3.978-6.975c.516-.904 1.883-.632 2.014.4z" fill="#ffe15a"/><path d="M72.181 126.184v22.849c0 9.449-7.688 17.137-17.137 17.137s-17.137-7.688-17.137-17.137v-22.849h34.274m5.711-11.425H32.195a5.713 5.713 0 0 0-5.713 5.713v28.562c0 15.774 12.788 28.562 28.562 28.562s28.562-12.788 28.562-28.562v-28.562a5.715 5.715 0 0 0-5.714-5.713z" fill="#ff4b55"/><path d="M72.181 126.184v22.849c0 9.449-7.688 17.137-17.137 17.137s-17.137-7.688-17.137-17.137v-22.849h34.274" fill="#f5f5f5"/><g fill="#ffe15a"><circle cx="32.15" cy="120.471" r="2.856"/><circle cx="77.848" cy="120.471" r="2.856"/><circle cx="32.15" cy="143.321" r="2.856"/><circle cx="77.848" cy="143.321" r="2.856"/><circle cx="54.999" cy="120.471" r="2.856"/><circle cx="72.14" cy="164.381" r="2.856"/><circle cx="38.19" cy="164.381" r="2.856"/></g><path d="M58.733 141.872v4.919c0 2.034-1.655 3.689-3.689 3.689s-3.689-1.655-3.689-3.689v-4.919h7.378m0-11.662v4.919c0 2.034-1.655 3.689-3.689 3.689s-3.689-1.655-3.689-3.689v-4.919h7.378m0 23.444v4.919c0 2.034-1.655 3.689-3.689 3.689s-3.689-1.655-3.689-3.689v-4.919h7.378m9.937-11.782v4.919a3.693 3.693 0 0 1-3.689 3.689 3.693 3.693 0 0 1-3.689-3.689v-4.919h7.378m-19.873 0v4.919c0 2.034-1.655 3.689-3.689 3.689s-3.689-1.655-3.689-3.689v-4.919h7.378" fill="#41479b"/></svg>