<svg xmlns="http://www.w3.org/2000/svg" viewBox="0 0 512 512"><path d="M170.667 423.721H8.828A8.829 8.829 0 0 1 0 414.893V97.101a8.829 8.829 0 0 1 8.828-8.828h161.839v335.448z" fill="#73af00"/><path fill="#f5f5f5" d="M170.67 88.277h170.67v335.45H170.67z"/><path d="M503.172 423.721H341.333V88.273h161.839A8.829 8.829 0 0 1 512 97.101v317.792a8.828 8.828 0 0 1-8.828 8.828zm-188.213-81.126l-27.396-159.812a49.976 49.976 0 0 0-6.402-17.266L256 123.583l-25.161 41.935a49.956 49.956 0 0 0-6.402 17.266L197.04 342.597a4.997 4.997 0 0 0 4.925 5.841h44.041v39.973h19.987v-39.974h44.041a4.997 4.997 0 0 0 4.925-5.842z" fill="#73af00"/></svg>