<svg xmlns="http://www.w3.org/2000/svg" viewBox="0 0 512.001 512.001"><path fill="#ffe15a" d="M114.76 88.277h282.48v335.45H114.76z"/><path d="M503.172 423.721h-105.93V88.273h105.931a8.829 8.829 0 0 1 8.828 8.828v317.792a8.83 8.83 0 0 1-8.829 8.828z" fill="#73af00"/><path d="M8.828 88.273h105.931v335.448H8.828A8.829 8.829 0 0 1 0 414.893V97.101a8.829 8.829 0 0 1 8.828-8.828z" fill="#4173cd"/><path d="M191.886 251.475l28.635 57.271 28.636-57.271-28.636-57.271zm70.957 0l28.636 57.271 28.635-57.271-28.635-57.271zm-35.479 68.852l28.635 57.27 28.636-57.27-28.636-57.271z" fill="#73af00"/></svg>